<?xml version="1.0" standalone="no"?>
<!DOCTYPE svg PUBLIC "-//W3C//DTD SVG 20010904//EN"
 "http://www.w3.org/TR/2001/REC-SVG-20010904/DTD/svg10.dtd">
<svg version="1.0" xmlns="http://www.w3.org/2000/svg"
 width="225.000000pt" height="225.000000pt" viewBox="0 0 225.000000 225.000000"
 preserveAspectRatio="xMidYMid meet">

<g transform="translate(0.000000,225.000000) scale(0.100000,-0.100000)"
fill="#000000" stroke="none">
<path d="M1062 2062 c-10 -7 -9 -22 5 -73 18 -69 14 -95 -13 -106 -25 -9 -49
26 -64 96 -12 55 -15 61 -34 55 -12 -4 -22 -7 -23 -8 -8 -6 41 -145 56 -160
39 -39 124 -13 135 41 6 30 -25 155 -40 160 -5 1 -15 -1 -22 -5z"/>
<path d="M1150 2050 c0 -13 7 -20 19 -20 30 0 32 -11 12 -93 -15 -65 -16 -77
-4 -82 27 -10 30 -5 48 76 18 79 19 81 46 75 19 -4 29 0 33 11 8 20 14 17 -69
36 -87 21 -85 21 -85 -3z"/>
<path d="M827 1989 c-17 -10 -17 -12 4 -45 l21 -34 -24 -20 c-31 -26 -39 -25
-63 9 -18 26 -23 27 -38 16 -17 -12 -14 -19 38 -92 31 -43 60 -79 64 -81 4 -1
14 4 20 12 10 12 8 21 -10 46 l-23 31 29 24 c33 26 30 27 71 -30 13 -18 15
-18 30 -3 16 15 13 22 -36 90 -67 93 -62 88 -83 77z"/>
<path d="M1322 1922 c-63 -69 -68 -78 -51 -86 14 -6 24 -4 38 8 15 14 23 15
45 5 22 -11 26 -17 21 -40 -5 -21 -2 -30 15 -39 24 -13 24 -13 40 90 6 41 14
83 16 92 3 11 -5 22 -24 32 l-29 15 -71 -77z m76 -12 c-9 -35 -12 -38 -30 -29
-19 10 -19 12 8 40 15 16 29 29 30 29 1 0 -3 -18 -8 -40z"/>
<path d="M1497 1817 c-37 -34 -67 -67 -67 -74 0 -31 27 -21 77 28 31 30 53 47
50 39 -46 -126 -51 -150 -35 -167 16 -15 22 -12 87 46 39 35 71 69 71 76 0 32
-25 24 -72 -21 -30 -29 -48 -41 -43 -29 44 119 46 128 28 147 -9 10 -19 18
-22 18 -3 -1 -36 -29 -74 -63z"/>
<path d="M596 1798 c-29 -33 -34 -44 -24 -53 7 -6 43 -37 79 -69 l67 -57 30
39 c43 54 49 85 22 112 -16 16 -29 20 -47 15 -16 -4 -22 -2 -18 4 12 20 -15
51 -45 51 -21 0 -38 -11 -64 -42z m77 -12 c3 -8 -1 -22 -8 -33 -13 -17 -15
-17 -31 -1 -14 14 -15 20 -4 32 16 20 36 20 43 2z m66 -50 c9 -11 10 -20 1
-35 -14 -26 -22 -26 -46 0 -18 20 -18 21 1 35 24 18 30 18 44 0z"/>
<path d="M537 1495 c-9 -29 -17 -64 -17 -79 0 -16 -12 -42 -27 -60 -37 -44
-53 -88 -53 -146 0 -52 23 -90 55 -90 19 0 105 78 105 96 0 7 10 30 22 50 32
55 29 118 -8 178 -16 26 -36 60 -44 75 l-16 27 -17 -51z"/>
<path d="M1069 1537 c-137 -51 -191 -198 -115 -310 14 -20 21 -39 18 -43 -4
-4 -2 -4 5 0 6 3 14 2 18 -4 15 -24 86 -50 138 -50 73 0 151 47 184 110 33 63
27 152 -13 213 -16 23 -27 47 -25 52 1 6 0 7 -4 3 -4 -4 -24 2 -44 13 -50 26
-118 32 -162 16z m21 -17 c0 -5 -18 -21 -39 -34 -22 -14 -42 -30 -46 -36 -3
-5 -15 -10 -26 -10 -16 0 -17 3 -7 19 13 22 86 71 105 71 7 0 13 -4 13 -10z
m141 -12 c47 -26 79 -68 53 -68 -14 0 -33 13 -91 61 -13 10 -18 29 -7 29 4 0
24 -10 45 -22z m-120 -28 c14 -8 19 -21 19 -50 0 -32 -5 -42 -30 -56 -20 -12
-26 -21 -20 -29 6 -7 11 -23 12 -37 2 -22 7 -25 41 -26 21 -1 44 -5 49 -9 7
-3 8 -1 4 6 -13 20 5 72 27 82 20 8 20 9 2 6 -11 -2 -32 3 -47 10 -24 11 -28
20 -28 53 0 64 43 74 103 22 20 -17 23 -72 5 -72 -7 0 -2 -6 12 -13 13 -7 27
-23 30 -37 6 -25 6 -25 12 -2 9 32 28 27 28 -8 0 -30 -28 -100 -41 -100 -12 0
-18 26 -8 41 5 8 8 21 8 29 0 8 -5 3 -11 -13 -11 -32 -50 -45 -76 -26 -14 11
-15 11 -5 0 9 -11 9 -20 -2 -41 -13 -25 -13 -30 1 -41 23 -19 0 -29 -67 -29
-64 0 -75 6 -54 30 13 14 14 22 4 43 -10 21 -9 30 2 44 12 16 11 16 -8 -1 -15
-12 -32 -17 -53 -14 -24 4 -30 1 -30 -14 0 -32 -20 -19 -40 25 -21 46 -26 97
-10 97 6 0 15 -10 20 -22 5 -15 9 -17 9 -7 1 25 44 60 61 49 8 -5 20 -10 25
-9 6 0 -2 7 -17 15 -41 22 -39 68 5 94 37 23 42 24 68 10z"/>
<path d="M970 1286 c0 -8 4 -17 9 -20 5 -4 7 3 4 14 -6 23 -13 26 -13 6z"/>
<path d="M1118 1173 c12 -2 30 -2 40 0 9 3 -1 5 -23 4 -22 0 -30 -2 -17 -4z"/>
<path d="M1690 1539 c0 -8 -16 -38 -35 -65 -58 -80 -65 -153 -21 -215 9 -13
16 -31 16 -40 0 -9 20 -35 45 -58 48 -44 75 -48 103 -13 30 39 6 160 -43 212
-14 16 -25 41 -28 70 -5 46 -36 138 -37 109z"/>
<path d="M581 1148 c-27 -24 -50 -47 -50 -52 -1 -5 29 -6 68 -2 57 5 73 3 86
-10 24 -25 14 -36 -51 -54 -32 -9 -77 -26 -99 -37 l-40 -22 55 6 c47 5 68 0
135 -26 92 -37 123 -37 144 1 14 24 14 30 -2 63 -9 19 -27 39 -40 44 -15 6
-27 23 -36 51 -13 44 -57 80 -98 80 -12 0 -45 -19 -72 -42z"/>
<path d="M1550 1172 c-25 -12 -39 -29 -51 -61 -9 -26 -26 -49 -41 -57 -14 -7
-31 -27 -38 -45 -12 -27 -11 -36 1 -58 21 -37 53 -37 144 0 64 25 89 30 133
27 l55 -5 -44 23 c-24 13 -68 28 -96 35 -45 10 -53 16 -53 35 0 29 17 34 96
27 41 -4 65 -2 63 3 -9 22 -98 94 -115 94 -11 0 -35 -8 -54 -18z"/>
<path d="M516 945 c-84 -29 -110 -91 -82 -189 26 -89 88 -135 219 -162 112
-24 196 -6 237 50 21 28 38 76 39 107 l1 26 -41 -20 c-57 -28 -149 -28 -187 0
-60 44 -61 109 -2 135 l28 12 -49 22 c-63 29 -115 35 -163 19z"/>
<path d="M1655 953 c-11 -2 -45 -13 -76 -25 l-57 -22 32 -16 c60 -33 56 -93
-10 -137 -38 -24 -131 -22 -183 5 l-41 22 0 -28 c0 -15 11 -50 24 -78 18 -38
33 -55 62 -69 80 -39 249 -17 339 44 75 51 109 197 58 253 -32 36 -99 59 -148
51z"/>
<path d="M356 524 c-9 -8 -16 -20 -16 -26 0 -6 8 -1 18 11 l17 21 745 3 745 2
-747 3 c-667 2 -748 0 -762 -14z"/>
<path d="M1887 530 c25 -10 31 -30 36 -110 l3 -55 2 65 c2 70 -15 111 -46 109
-13 0 -11 -3 5 -9z"/>
<path d="M410 435 c0 -25 5 -45 10 -45 6 0 10 9 10 20 0 12 7 20 18 20 16 1
16 1 0 11 -10 5 -18 14 -18 19 0 5 8 11 18 13 10 3 6 5 -10 6 -27 1 -28 -1
-28 -44z"/>
<path d="M486 464 c-17 -45 7 -81 48 -70 27 7 40 40 25 68 -12 23 -64 25 -73
2z m56 -11 c7 -27 -2 -43 -23 -43 -13 0 -19 7 -19 23 0 39 33 54 42 20z"/>
<path d="M587 474 c-13 -13 -7 -61 8 -74 9 -7 25 -10 40 -6 23 6 26 11 23 44
-3 33 -6 37 -33 40 -17 2 -34 0 -38 -4z m52 -21 c12 -23 -4 -54 -24 -47 -8 4
-15 16 -15 28 0 38 22 48 39 19z"/>
<path d="M683 469 c11 -7 17 -22 17 -46 0 -44 11 -38 12 6 1 18 8 36 17 41 12
7 6 9 -24 9 -32 0 -36 -2 -22 -10z"/>
<path d="M750 436 c0 -41 2 -46 23 -46 35 0 45 12 43 50 -1 32 -5 35 -34 38
-32 3 -32 3 -32 -42z m50 24 c0 -5 -7 -10 -15 -10 -8 0 -15 5 -15 10 0 6 7 10
15 10 8 0 15 -4 15 -10z m-2 -41 c-2 -6 -8 -10 -13 -10 -5 0 -11 4 -13 10 -2
6 4 11 13 11 9 0 15 -5 13 -11z"/>
<path d="M843 438 c-13 -49 -9 -60 12 -32 15 19 15 19 30 0 22 -29 28 -14 14
33 -16 55 -41 55 -56 -1z m33 -5 c-10 -10 -19 5 -10 18 6 11 8 11 12 0 2 -7 1
-15 -2 -18z"/>
<path d="M930 435 c0 -41 2 -45 25 -45 14 0 25 5 25 10 0 6 -7 10 -15 10 -10
0 -15 11 -15 35 0 19 -4 35 -10 35 -5 0 -10 -20 -10 -45z"/>
<path d="M1000 435 c0 -41 2 -45 25 -45 14 0 25 5 25 10 0 6 -7 10 -15 10 -10
0 -15 11 -15 35 0 19 -4 35 -10 35 -5 0 -10 -20 -10 -45z"/>
<path d="M1100 435 c0 -25 5 -45 10 -45 6 0 10 9 10 20 0 11 7 20 15 20 8 0
15 4 15 10 0 5 -7 7 -15 4 -9 -4 -15 0 -15 9 0 9 8 18 18 20 10 3 6 5 -10 6
-27 1 -28 -1 -28 -44z"/>
<path d="M1170 435 c0 -43 1 -45 30 -45 17 0 30 5 30 10 0 6 -9 10 -20 10 -11
0 -20 5 -20 10 0 6 7 10 15 10 8 0 15 5 15 10 0 6 -7 10 -15 10 -23 0 -18 18
8 23 16 3 13 5 -10 6 -33 1 -33 0 -33 -44z"/>
<path d="M1240 436 c0 -41 2 -46 23 -46 37 0 59 22 55 55 -3 27 -7 30 -40 33
l-38 3 0 -45z m55 4 c0 -16 -6 -26 -17 -28 -14 -3 -18 3 -18 28 0 25 4 31 18
28 11 -2 17 -12 17 -28z"/>
<path d="M1340 435 c0 -43 1 -45 30 -45 17 0 30 5 30 10 0 6 -9 10 -20 10 -11
0 -20 5 -20 10 0 6 7 10 15 10 8 0 15 5 15 10 0 6 -7 10 -15 10 -23 0 -18 18
8 23 16 3 13 5 -10 6 -33 1 -33 0 -33 -44z"/>
<path d="M1410 436 c0 -25 5 -46 10 -46 6 0 10 9 10 20 0 11 5 20 11 20 6 0
13 -9 16 -20 9 -35 21 -21 20 23 -2 40 -4 42 -34 45 -33 3 -33 3 -33 -42z m48
22 c-6 -18 -28 -21 -28 -4 0 9 7 16 16 16 9 0 14 -5 12 -12z"/>
<path d="M1511 458 c-25 -69 -23 -87 5 -50 13 16 15 16 29 -2 21 -28 26 -17
13 32 -12 46 -33 55 -47 20z m25 -25 c-10 -10 -19 5 -10 18 6 11 8 11 12 0 2
-7 1 -15 -2 -18z"/>
<path d="M1578 473 c7 -2 12 -22 12 -44 0 -21 5 -39 10 -39 6 0 10 18 10 39 0
29 5 41 18 44 9 3 -1 5 -23 5 -22 0 -34 -2 -27 -5z"/>
<path d="M1650 435 c0 -25 5 -45 10 -45 6 0 10 20 10 45 0 25 -4 45 -10 45 -5
0 -10 -20 -10 -45z"/>
<path d="M1697 473 c-12 -12 -7 -60 8 -73 33 -27 81 15 64 58 -6 16 -17 22
-37 22 -16 0 -32 -3 -35 -7z m51 -36 c3 -22 -1 -27 -17 -27 -15 0 -21 6 -21
23 0 46 33 49 38 4z"/>
<path d="M1790 435 c0 -51 20 -63 21 -12 l0 32 16 -32 c24 -48 43 -42 43 12 0
49 -16 62 -22 18 l-4 -28 -14 28 c-21 43 -40 34 -40 -18z"/>
<path d="M340 377 c0 -16 21 -47 33 -47 8 0 9 3 1 8 -6 4 -16 16 -22 27 -6 11
-12 16 -12 12z"/>
<path d="M1896 345 c-11 -8 -15 -15 -9 -15 6 0 16 7 23 15 16 19 11 19 -14 0z"/>
<path d="M978 323 c12 -2 32 -2 45 0 12 2 2 4 -23 4 -25 0 -35 -2 -22 -4z"/>
<path d="M1158 323 c23 -2 61 -2 85 0 23 2 4 4 -43 4 -47 0 -66 -2 -42 -4z"/>
</g>
</svg>
