<?xml version="1.0" encoding="UTF-8" standalone="no"?>
<!-- Created with Inkscape (http://www.inkscape.org/) -->

<svg
   width="123.69283mm"
   height="130.06223mm"
   viewBox="0 0 123.69283 130.06223"
   version="1.1"
   id="svg3287"
   sodipodi:docname="festival-icon.svg"
   inkscape:version="1.2.2 (b0a8486541, 2022-12-01)"
   xmlns:inkscape="http://www.inkscape.org/namespaces/inkscape"
   xmlns:sodipodi="http://sodipodi.sourceforge.net/DTD/sodipodi-0.dtd"
   xmlns="http://www.w3.org/2000/svg"
   xmlns:svg="http://www.w3.org/2000/svg">
  <sodipodi:namedview
     id="namedview3289"
     pagecolor="#ffffff"
     bordercolor="#000000"
     borderopacity="0.25"
     inkscape:showpageshadow="2"
     inkscape:pageopacity="0.0"
     inkscape:pagecheckerboard="0"
     inkscape:deskcolor="#d1d1d1"
     inkscape:document-units="mm"
     showgrid="false"
     inkscape:zoom="1.0834765"
     inkscape:cx="311.03583"
     inkscape:cy="270.42581"
     inkscape:window-width="1920"
     inkscape:window-height="1002"
     inkscape:window-x="0"
     inkscape:window-y="0"
     inkscape:window-maximized="1"
     inkscape:current-layer="layer1" />
  <defs
     id="defs3284" />
  <g
     inkscape:label="Layer 1"
     inkscape:groupmode="layer"
     id="layer1"
     transform="translate(-45.187139,-112.94535)">
    <g
       id="g4268">
      <g
         id="g3996">
        <path
           style="fill:#a0e5a5;fill-opacity:1;stroke:#000000;stroke-width:1.95472;stroke-dasharray:none;stroke-dashoffset:0"
           d="m 165.70055,153.12521 -13.62257,22.99364 c 0,0 -2.5798,-22.08519 -8.54282,-22.47269 -5.90398,-0.38367 -14.57908,20.81558 -14.57908,20.81558 0,0 -1.50908,-21.1489 -8.10762,-21.38992 -6.16016,-0.225 -15.8657,19.34116 -15.8657,19.34116 0,0 -0.99091,-22.22207 -7.432863,-23.23886 -6.358132,-1.00357 -15.648056,23.07274 -16.101266,19.29272 -1.648333,-13.74803 -2.542789,-28.528 -6.951227,-28.97156 -8.311411,-0.83625 -19.964973,21.08813 -21.182398,17.63802 -4.301292,-12.18962 -5.792029,-44.53229 -4.571332,-43.17688 7.345374,8.156 33.126996,34.53071 60.583296,38.06854 21.94882,2.82817 56.37358,1.10025 56.37358,1.10025"
           id="path170"
           sodipodi:nodetypes="ccscsccsssssc" />
        <path
           style="fill:#ffcd69;fill-opacity:1;stroke:#000000;stroke-width:1.64578;stroke-dasharray:none;stroke-dashoffset:0"
           d="m 82.136139,165.64167 c -0.06172,-0.4091 -0.375326,-2.82329 -0.696903,-5.36486 -0.864131,-6.82963 -1.643573,-11.90363 -2.411434,-15.69791 -0.375671,-1.85633 -3.751625,-7.06062 -3.711284,-7.10677 0.04034,-0.0462 5.117688,4.67848 7.492157,6.04088 2.374469,1.3624 5.831799,3.16065 7.682955,3.99611 1.851155,0.83546 3.400587,1.54827 3.443183,1.58402 0.04259,0.0358 -0.173777,0.2792 -0.480821,0.54098 -2.049578,1.74745 -4.770502,5.64371 -8.483106,12.14747 -1.323819,2.31908 -2.477951,4.30367 -2.564737,4.4102 -0.08679,0.10654 -0.208288,-0.14102 -0.27001,-0.55012 z"
           id="path1906"
           sodipodi:nodetypes="sssssssssss" />
        <path
           style="fill:#33d6f5;fill-opacity:1;stroke:#000000;stroke-width:1.64578;stroke-dasharray:none;stroke-dashoffset:0"
           d="m 105.59741,167.39394 c -0.59649,-5.43043 -1.76031,-10.9592 -2.9021,-13.78667 -0.36693,-0.90863 -0.63379,-1.69023 -0.59301,-1.73688 0.0408,-0.0466 0.92859,0.11299 1.97293,0.35475 2.48676,0.57567 5.83289,1.07766 9.37822,1.40691 l 2.86355,0.26594 -1.26625,1.27194 c -2.10372,2.11319 -5.26942,6.54152 -7.81942,10.93819 -0.66684,1.14976 -1.27821,2.17398 -1.3586,2.27604 -0.0804,0.10207 -0.20428,-0.34353 -0.27532,-0.99022 z"
           id="path2407" />
        <path
           style="fill:#ff7d97;fill-opacity:1;stroke:#000000;stroke-width:1.64578;stroke-dasharray:none;stroke-dashoffset:0"
           d="m 129.43079,169.49252 c -0.99136,-6.49959 -2.37734,-11.46568 -3.91234,-14.01831 l -0.58888,-0.97927 6.58161,0.0978 c 3.61988,0.0538 6.79675,0.14945 7.05971,0.21256 0.40972,0.0983 0.43232,0.14404 0.15801,0.31968 -1.13401,0.7261 -5.20863,7.24077 -7.81635,12.49711 l -1.35153,2.72425 z"
           id="path2478" />
        <path
           style="fill:#2aff2a;fill-opacity:1;stroke:#000000;stroke-width:1.64578;stroke-dasharray:none;stroke-dashoffset:0"
           d="m 152.25513,170.56932 c -1.22076,-6.78957 -3.00935,-12.49978 -4.74633,-15.15302 l -0.4449,-0.67958 8.19279,-0.14477 c 4.50603,-0.0796 8.22303,-0.11017 8.26001,-0.0679 0.0564,0.0645 -10.31105,17.73673 -10.70392,18.24573 -0.0723,0.0936 -0.32321,-0.89659 -0.55765,-2.2005 z"
           id="path2618" />
        <path
           style="fill:#a0e5a5;fill-opacity:1;stroke:#000000;stroke-width:2.01609;stroke-dasharray:none;stroke-dashoffset:0"
           d="m 164.71278,155.29204 2.87831,27.56952 c 0,0 -15.448,-14.85112 -20.51071,-10.71832 -5.01258,4.09188 0.78633,26.62613 0.78633,26.62613 0,0 -14.01468,-14.93523 -19.50336,-10.21941 -5.12405,4.40253 -1.14733,26.46198 -1.14733,26.46198 0,0 -14.24426,-16.13462 -20.07542,-12.12401 -5.75528,3.95844 1.28611,29.13331 -1.36735,26.60011 -9.650723,-9.21334 -19.800773,-19.73255 -23.713631,-18.9777 -6.400548,1.23476 -0.402244,34.56482 -5.921975,31.26019 -10.519551,-6.29799 -31.627003,-29.50747 -29.818719,-29.38474 10.881101,0.73853 47.710519,1.62096 72.082125,-16.07695 19.48289,-14.14788 46.31173,-41.0168 46.31173,-41.0168"
           id="path2776"
           sodipodi:nodetypes="ccscsccsssssc" />
        <path
           style="fill:#ffcd69;fill-opacity:1;stroke:#000000;stroke-width:1.69745;stroke-dasharray:none;stroke-dashoffset:0"
           d="m 104.62101,226.83285 c -0.29744,-0.26476 -2.01169,-1.86471 -3.80944,-3.55545 -4.830875,-4.54331 -8.531209,-7.81667 -11.448072,-10.1271 -1.427063,-1.13036 -7.308624,-2.57497 -7.303879,-2.63996 0.0047,-0.065 6.973806,-0.24764 9.720539,-0.97617 2.746733,-0.72852 6.633906,-1.93009 8.638162,-2.67015 2.00426,-0.74005 3.69002,-1.34922 3.74614,-1.3537 0.0561,-0.004 0.0282,0.34097 -0.0621,0.76766 -0.60255,2.84823 -0.4489,7.82617 0.47903,15.51988 0.33088,2.74339 0.59683,5.10686 0.591,5.25217 -0.006,0.1453 -0.25395,0.0476 -0.55139,-0.21718 z"
           id="path2778"
           sodipodi:nodetypes="sssssssssss" />
        <path
           style="fill:#33d6f5;fill-opacity:1;stroke:#000000;stroke-width:1.69745;stroke-dasharray:none;stroke-dashoffset:0"
           d="m 124.67775,210.74533 c -3.76781,-3.67977 -8.05446,-7.01301 -10.68929,-8.31186 -0.84673,-0.4174 -1.53558,-0.81265 -1.53079,-0.87834 0.005,-0.0657 0.82024,-0.60361 1.81209,-1.1954 2.36177,-1.40915 5.37481,-3.51225 8.44466,-5.89436 l 2.4795,-1.92403 -0.2559,1.90569 c -0.42517,3.16609 -0.3098,8.87817 0.28494,14.10912 0.15553,1.36792 0.28004,2.59936 0.27669,2.73653 -0.003,0.13717 -0.37321,-0.10914 -0.8219,-0.54735 z"
           id="path2780" />
        <path
           style="fill:#ff7d97;fill-opacity:1;stroke:#000000;stroke-width:1.69745;stroke-dasharray:none;stroke-dashoffset:0"
           d="m 145.24525,194.64447 c -4.73425,-4.1983 -8.86042,-6.93944 -11.64739,-7.73772 l -1.06917,-0.30625 5.38835,-4.81196 c 2.9636,-2.64658 5.5938,-4.93249 5.84488,-5.07981 0.39124,-0.22953 0.43719,-0.2116 0.32132,0.12539 -0.47901,1.39312 0.1624,9.36387 1.23041,15.29032 l 0.55353,3.07155 z"
           id="path2782" />
        <path
           style="fill:#2aff2a;fill-opacity:1;stroke:#000000;stroke-width:1.69745;stroke-dasharray:none;stroke-dashoffset:0"
           d="m 164.37767,178.51702 c -5.0954,-4.24813 -9.99769,-7.25528 -13.00906,-7.98 l -0.7713,-0.18562 6.5462,-6.19228 c 3.6004,-3.40575 6.59163,-6.18846 6.64716,-6.18379 0.0847,0.007 2.37982,21.12015 2.3696,21.79823 -0.002,0.12474 -0.80405,-0.4407 -1.7826,-1.25654 z"
           id="path2784" />
        <ellipse
           style="fill:#ff0000;fill-opacity:1;stroke:#000000;stroke-width:3.02414;stroke-dasharray:none;stroke-dashoffset:0"
           id="path2842"
           cx="92.97522"
           cy="187.70976"
           rx="6.8931742"
           ry="7.032351" />
        <ellipse
           style="fill:#aa4400;fill-opacity:1;stroke:#000000;stroke-width:3.02414;stroke-dasharray:none;stroke-dashoffset:0"
           id="path2948"
           cx="145.65567"
           cy="231.00269"
           rx="6.7093124"
           ry="7.2521119" />
        <ellipse
           style="fill:#d4aa00;fill-opacity:1;stroke:#000000;stroke-width:3.02414;stroke-dasharray:none;stroke-dashoffset:0"
           id="path3002"
           cx="142.533"
           cy="129.80275"
           rx="4.5721903"
           ry="5.3841438" />
        <ellipse
           style="fill:#0000d4;fill-opacity:1;stroke:#000000;stroke-width:3.02414;stroke-dasharray:none;stroke-dashoffset:0"
           id="path3056"
           cx="111.55939"
           cy="136.91251"
           rx="4.5012584"
           ry="4.8285971" />
      </g>
      <path
         style="fill:#800080;stroke:#000000;stroke-width:5.53773"
         d="m 284.47203,906.74654 c -10.23017,-6.98257 -23.80833,-18.2149 -38.73527,-32.04316 -10.50243,-9.72942 -31.6586,-31.08119 -42.29542,-42.68647 -9.42478,-10.2829 -21.15773,-23.91497 -21.15773,-24.58238 0,-0.2114 2.12856,-0.21904 4.73014,-0.017 7.03265,0.54625 44.88695,0.39089 55.49267,-0.22775 18.42687,-1.07487 46.60946,-3.85412 55.03992,-5.42782 1.47294,-0.27495 1.49759,-0.25282 1.04488,0.93789 -0.96576,2.54015 -2.373,8.77681 -3.00558,13.3203 -1.28706,9.24424 -1.69148,18.97875 -2.09402,50.4038 -0.30273,23.6338 -0.57626,32.86256 -1.06111,35.80121 -0.65889,3.99353 -1.54214,7.28108 -2.13038,7.92954 -0.17556,0.19353 -2.79821,-1.34016 -5.8281,-3.4082 z"
         id="path4226"
         transform="scale(0.26458333)" />
      <path
         style="fill:#800080;stroke:#000000;stroke-width:5.53773"
         d="m 203.98611,588.6272 c -0.95768,-2.47968 -3.6828,-13.3278 -5.11164,-20.34835 -6.31493,-31.02807 -11.01042,-76.68437 -12.24159,-119.03051 l -0.29518,-10.15251 10.13245,10.38324 c 24.73257,25.34475 51.20892,48.32377 77.9421,67.64652 l 8.56376,6.18988 -3.16013,0.007 c -4.39865,0.01 -8.45476,1.06307 -13.31263,3.45795 -6.8199,3.36214 -12.16937,7.55381 -21.49175,16.84024 -8.85418,8.82004 -12.75967,13.27488 -26.05736,29.72263 -4.29029,5.3066 -9.29401,11.22505 -11.11938,13.15211 l -3.31886,3.50374 z"
         id="path4228"
         transform="scale(0.26458333)" />
    </g>
  </g>
</svg>
